<svg width="20" height="20" viewBox="0 0 20 20" fill="none" xmlns="http://www.w3.org/2000/svg">
<g clip-path="url(#clip0_494_168)">
<mask id="mask0_494_168" style="mask-type:alpha" maskUnits="userSpaceOnUse" x="0" y="0" width="20" height="20">
<rect width="20" height="20" fill="#D9D9D9"/>
</mask>
<g mask="url(#mask0_494_168)">
<path d="M6.99521 17C5.88729 17 4.94444 16.61 4.16667 15.83C3.38889 15.05 3 14.1067 3 13C3 12.3056 3.15625 11.6667 3.46875 11.0833C3.78125 10.5 4.20833 10.0347 4.75 9.6875V5.25C4.75 4.625 4.96875 4.09375 5.40625 3.65625C5.84375 3.21875 6.375 3 7 3C7.625 3 8.15625 3.21875 8.59375 3.65625C9.03125 4.09375 9.25 4.625 9.25 5.25V9.6875C9.79167 10.0347 10.2188 10.5 10.5312 11.0833C10.8438 11.6667 11 12.3056 11 13C11 14.1067 10.6095 15.05 9.82854 15.83C9.04771 16.61 8.10326 17 6.99521 17ZM4.5 13H9.5C9.5 12.6528 9.42708 12.3229 9.28125 12.0104C9.13542 11.6979 8.92361 11.4236 8.64583 11.1875L7.75 10.5V5.25C7.75 5.0375 7.67854 4.85937 7.53562 4.71562C7.39271 4.57187 7.21562 4.5 7.00437 4.5C6.79312 4.5 6.61458 4.57187 6.46875 4.71562C6.32292 4.85937 6.25 5.0375 6.25 5.25V10.5L5.375 11.1875C5.09722 11.4375 4.88194 11.7222 4.72917 12.0417C4.57639 12.3611 4.5 12.6806 4.5 13ZM15.25 6.89583L14.9792 7.16667C14.8264 7.31944 14.6493 7.39583 14.4479 7.39583C14.2465 7.39583 14.0694 7.31944 13.9167 7.16667C13.7639 7.01389 13.6875 6.83681 13.6875 6.63542C13.6875 6.43403 13.7639 6.25694 13.9167 6.10417L15.4583 4.5625C15.6099 4.40972 15.7866 4.33333 15.9885 4.33333C16.1906 4.33333 16.3681 4.40972 16.5208 4.5625L18.0417 6.08333C18.1944 6.23611 18.2743 6.41319 18.2812 6.61458C18.2882 6.81597 18.2153 6.99306 18.0625 7.14583C17.9097 7.29861 17.7361 7.37847 17.5417 7.38542C17.3472 7.39236 17.1736 7.31944 17.0208 7.16667L16.75 6.89583V15.2523C16.75 15.4641 16.6785 15.6417 16.5356 15.785C16.3927 15.9283 16.2156 16 16.0044 16C15.7931 16 15.6146 15.9285 15.4688 15.7854C15.3229 15.6424 15.25 15.4651 15.25 15.2537V6.89583Z" fill="#BAC8DE"/>
</g>
</g>
<defs>
<clipPath id="clip0_494_168">
<rect width="20" height="20" fill="white"/>
</clipPath>
</defs>
</svg>
